<svg xmlns="http://www.w3.org/2000/svg" viewBox="0 0 53 84.42"><defs><style>.cls-1{isolation:isolate;}.cls-2{fill:#ffc0a3;}.cls-3,.cls-7,.cls-8{fill:#fff;}.cls-4{fill:#ff5959;}.cls-5{fill:#f2cebd;}.cls-5,.cls-6{mix-blend-mode:multiply;}.cls-6{fill:#911111;opacity:0.3;}.cls-7,.cls-8{mix-blend-mode:screen;}.cls-7{opacity:0.5;}.cls-8{opacity:0.75;}.cls-9{fill:#2e343b;}</style></defs><g class="cls-1"><g id="Layer_2" data-name="Layer 2"><g id="Layer_1-2" data-name="Layer 1"><path class="cls-2" d="M52.83,78.63c-.21.12-.42.24-.64.35a45.15,45.15,0,0,1-7.94,3.33l-.12,0-.84.26q-1.76.51-3.57.87l-1.16.23-.78.13q-1.39.22-2.82.36l-.33,0c-1.38.13-2.78.19-4.2.19a46.05,46.05,0,0,1-8.69-.82c-.8-.15-1.59-.32-2.38-.51-.56-1-1.16-2-1.79-3-1-1.36-2.05-2.72-3.06-4-.73-1-1.44-1.87-2.09-2.74-2-2.7-3.56-4.93-3.78-6.21l-.05-.25-.22.12L7,67.71c-1.76,1-5.73,3.26-6.71,3.45l-.06,0,.07-.09c.16-.2,2.49-1.92,4.36-3.3C7,66.07,8.4,65,8.59,64.81l0,0V64.7c.31-2.87,2.42-6.91,3.81-8.86l.09-.13a2,2,0,0,1,1.24-.94l.13,0V54.6a40.51,40.51,0,0,0-.41-6.77l0-.13-.13,0a4.8,4.8,0,0,1-3.8-2.61c-.48-.75-.88-1.33-1.24-1.85a22.74,22.74,0,0,1-2.45-4.32c-1.29-2.93-.4-5.58,1.08-6.58l.16-.11L7,32.05C2.91,26.22,2.72,21.74,3.28,19c.78-3.79,4.2-6.06,5.81-6.94a21.42,21.42,0,0,0-3,4.95l.33.16c2-3.72,5.84-6.93,7.19-7.37l-.1-.34a19.39,19.39,0,0,0-10.66,6.4A13.29,13.29,0,0,1,7.37,7.94C9.85,5.74,14.24,3.24,21,3.8l1.56.13-1.49-.49a14.46,14.46,0,0,0-5.59-.7A37.52,37.52,0,0,1,27.3.2C32.73,0,40.5,2.36,43.58,6.61a6.72,6.72,0,0,1,.84,6.63l0,.06,0,.07c.37.84.68,1.77,1,2.76s.65,2,1.06,3c0,.09.22.47.45,1,.47,1,1.18,2.54,1.48,3.23l0,.09.05.15.07.18a13.81,13.81,0,0,1,.95,5.05,19.78,19.78,0,0,0,.86,6.16,25.21,25.21,0,0,1,1,5.71c1,13.14-2,20-9.62,22.34l-.13,0,.08,1.54a4.93,4.93,0,0,0,.41,1.21C43,66.94,45,69.19,47,71.36l1.86,2a30.26,30.26,0,0,1,2.65,3.19c.25.43.5.85.76,1.24S52.64,78.38,52.83,78.63Z"/><path class="cls-3" d="M26.69,34.23l.7,1.05c.94.68,6.29.43,6.14-2.75C31.57,30.29,27.51,32.68,26.69,34.23Z"/><path class="cls-3" d="M40.21,31.14l.42,1.37c.78,1.06,4.94,1.15,5.29-2.49C44.19,27.92,40.93,29.69,40.21,31.14Z"/><path class="cls-3" d="M33.35,49.28a8.41,8.41,0,0,0,7.17,1.55l3.25-1.28.41-.18.43-.31.18-1.64Z"/><path class="cls-4" d="M38.56,83.71l-.78.13q-1.39.22-2.82.36l-.33,0c-1.38.13-2.78.19-4.2.19a46.05,46.05,0,0,1-8.69-.82c-.8-.15-1.59-.32-2.38-.51L19.13,83a45.63,45.63,0,0,1-12-4.9A46.28,46.28,0,0,1,.06,73c0-.55.11-1.12.2-1.69a1.23,1.23,0,0,1,0-.19s0,0,0-.07l8.62-5.37.16-.37L12.64,57l.12.17,4.78,6.57.14.18c5.06,6.3,10.23,12,15.67,16.13Z"/><path class="cls-4" d="M52.87,78.61a.05.05,0,0,1,0,0c-.21.12-.42.24-.64.35a45.15,45.15,0,0,1-7.94,3.33l-.12,0-1.38-3.28-2-6.15.23-2.38.25-2.24L41.42,66l.06-.5,6.22,6.64,0,0,1.15,1.23,3.41,4.43Z"/><path class="cls-5" d="M15.7,32.73S17,41.5,22.39,46c3.3,3.81,1,9.24,3.92,12.05,2.54,2.46,11.76,6.15,16.61,1.55a15,15,0,0,0,7.14-6.5s-2.48,6.28-4.72,7.12a11.3,11.3,0,0,0-3.78,2.48l-.82,4v4.57l-.62,1.37-.77,1.45s-10.24,3.51-17-13.38c-1.54-3.81-3.52-3.58-4-1.45s1,6.06,1,6.06L14,58.68V47.08s1.64.16,1.64-2.57S13,34.76,13,34.76L9.6,25.31s6.49-10,12.3-10.35,19.62-3,20.23-3.88,1.3,2,1.3,2S39,16.41,27.91,17.62C20.82,18.4,14.52,22.89,15.7,32.73Z"/><path class="cls-5" d="M7.92,37.59c0-.09-.88-1.64,0-2.55a2.89,2.89,0,0,1,2.32-.66L13,37.16l.36,2.4-.88,2.93-1.15-.94s-.2-2.48-1.1-3A20.64,20.64,0,0,0,7.92,37.59Z"/><path class="cls-6" d="M18.61,65.56a4.44,4.44,0,0,0-.59.08,5.72,5.72,0,0,0-5.08,6.13,9.11,9.11,0,0,0,.1,1.12c-.21.13-.42.25-.62.39l-.15.09a18,18,0,0,0-5.12,4.76A46.28,46.28,0,0,1,.06,73c0-.55.11-1.12.2-1.69a1.23,1.23,0,0,1,0-.19s0,0,0-.07l8.78-5.74,3.69-8.2L13.28,56,14,57.34l2.47,4.44,1.18,2.12Z"/><path class="cls-6" d="M41.42,66l-.72,6.89,1,.88c.72-2.36,3-2.52,6-1.62Z"/><path class="cls-3" d="M15.13,22.26A7.07,7.07,0,0,1,18,19l-4.82-.56L9.43,25.12l1.41,2.43,1.93-1Z"/><path class="cls-3" d="M33.87,15.83a20.34,20.34,0,0,0,6-2.22c3-1.71,0-5.29,0-5.29l-5.4-.89Z"/><path class="cls-7" d="M37.18,26.55a3.19,3.19,0,0,0-.11,2.07,12.81,12.81,0,0,0,1.43,3c.75,1.35,2.26,4.67,2.52,4.13s-1.14-2.54-3-6.84A2.56,2.56,0,0,1,38,27C38.46,25.74,37.68,25.51,37.18,26.55Z"/><path class="cls-8" d="M41.41,39.41l0,.89a.91.91,0,0,0,0,.33.41.41,0,0,0,.48.19,1.15,1.15,0,0,0,.77-.87,1.92,1.92,0,0,0-.16-1.25c-.16-.33-.54-.73-.88-.46S41.42,39.1,41.41,39.41Z"/><path class="cls-8" d="M46,24.7c.17.06.38.13.52,0s.11-.4,0-.6l-2.4-6.56a2.16,2.16,0,0,0-.81-1.22l1.08,4.16A3.53,3.53,0,0,1,44.64,22c-.1.54-.46.78-.77,1.2s.09.63.51.8Z"/><path class="cls-8" d="M37.66,51.58a4.89,4.89,0,0,0,2.8.59,4.82,4.82,0,0,0,2.65-1.08,1,1,0,0,0,.29-.34.38.38,0,0,0-.06-.43c-.16-.15-.42-.07-.62,0a11.48,11.48,0,0,1-3.06.73,11.76,11.76,0,0,1-1.57,0c-.16,0-.47-.08-.6.06S37.51,51.5,37.66,51.58Z"/><path class="cls-9" d="M34.58,29.47c1.89-5.75-14.12-1.5-12,3.61C25.48,29.9,31.39,27,34.58,29.47Z"/><path class="cls-9" d="M27.18,34.57,28,33.7c.92,2.52,4.33,1.38,3.36-1.38a3.46,3.46,0,0,1,3.17,1.15c-.24-1.14-2.39-2.63-4.89-2a5,5,0,0,0-3.35,2.93L27.88,36Z"/><path class="cls-9" d="M32.72,30.56c-4.63-1.79-7,2.52-7,2.52A10.27,10.27,0,0,1,32.72,30.56Z"/><path class="cls-9" d="M45.92,28.64c-3.74-2.17-6.42,1.25-6.42,1.25A9,9,0,0,1,45.92,28.64Z"/><path class="cls-9" d="M43.48,29.06a6.17,6.17,0,0,0-3.92,1.87c0,.55,1.17,2.32,2,4.15a6.2,6.2,0,0,1,.74,2.54A8.88,8.88,0,0,0,42,34.5c-.31-1.12-1.09-2-1-2.52a2.14,2.14,0,0,0,2.14.53c1.1-.43.92-2.15.49-2.61a4.14,4.14,0,0,1,2.62.62C46.68,30.81,46.23,28.64,43.48,29.06Z"/><path class="cls-9" d="M36.71,43.93c.27-.17-.49-1.18-.75-1.83s.51-1.55.51-1.55-1.19.7-1.29,1.44C35.06,42.92,36.29,44.19,36.71,43.93Z"/><path class="cls-9" d="M38.47,43.66c.93-.49.56-.54,1.56-.39.8.13,1.1-.8.44-1.1-1.46-.69-1.88-1-2.5-.25C37.07,43,37.58,44.14,38.47,43.66Z"/><path class="cls-9" d="M41.67,42.47c-.6,1.37,1.73.33,2.22-.42a3.38,3.38,0,0,0,.37-1.93c0-1.23-.89-1.69-1.72-2a2.9,2.9,0,0,1,.67,1.19,3.76,3.76,0,0,1-.28,2.19C42.58,42.15,41.78,42.21,41.67,42.47Z"/><path class="cls-9" d="M30.71,47.81c-.59-.08-.79,1.24.07,2.24.6.63.91.49,1.11-.13l1.58.15a10.11,10.11,0,0,0,8.36,1c1.8-.49,2-1.55,2-1.55-3.82.88-6.15,1.59-9.81-.13,3.17-.23,5.89-.69,7.4-.85a11.18,11.18,0,0,0,2.94-.68L44.52,49a3,3,0,0,1-.37.41A2.28,2.28,0,0,0,46,47.83a.31.31,0,0,1,.51-.07c.22.28.41.62.62.19s-.49-1-.46-1.43.26-1-.37-1.1c-.24,0-.25,1-.78,1.2-.36.1-1-.58-1.66-.46s-1.23.83-2.42,1a17,17,0,0,1-2.52,0c-1.82.23-5.82,1.68-6.31,1.74C30.62,49.11,31.3,47.88,30.71,47.81Z"/><path class="cls-9" d="M35.37,52.1c4.81,4.74,8.7,2,8.09.13C40,53.33,38.52,53.41,35.37,52.1Z"/><path class="cls-9" d="M29.67,46c-3.43,2.56-1.13,6.13.16,6.18C28.67,50.08,28.34,48.23,29.67,46Z"/><path class="cls-9" d="M13.06,37.25C13,36.06,10.84,33,8.73,33.81,6.49,35,7.78,38,7.91,37.94c.26.17-.13-1.66.41-2.71.43-.85,1.46-.66,2.29-.18C11.6,35.61,12.66,37.6,13.06,37.25Z"/><path class="cls-9" d="M13.15,41c.25-2.19,1-1.49-1.73-4.19-1.34-1.29-2,1.4-1.59,1.45s.36-.53.69-.5c.13,0,.18.17.28.26,1.92,1.8,1.41,3.66.6,3.52-.11,0-.2-.07-.3-.08-.27,0-.39.24,0,.4,1.38.53,1,2,1.81,2.12.45.09,1-.39.76-1.14C13.44,41.87,13,42,13.15,41Z"/><path class="cls-9" d="M47.14,26.74c.28-2.74-10.39-2.93-8.68,1.88C40.65,25.43,45.71,26.48,47.14,26.74Z"/><path class="cls-9" d="M39.86,13.6l-.06,0h0l0,0,.26-.18Zm-24,19.58L15.74,33a.67.67,0,0,0,0,.17c0,.07,0,.14,0,.23s0,.24.08.38.06.3.1.47A3.29,3.29,0,0,0,15.83,33.18Zm6.47,27.5a9.08,9.08,0,0,0-1-1.87,1.83,1.83,0,0,1-.13-.16l-.13-.15a.86.86,0,0,0-.13-.14l-.12-.12-.17-.15a2.1,2.1,0,0,0-.33-.22,1.66,1.66,0,0,0-.32-.13,1.1,1.1,0,0,0-.54,0,22.86,22.86,0,0,0,3.24,3.85C22.55,61.29,22.42,61,22.3,60.68ZM39.86,13.6l-.06,0h0l0,0,.26-.18Zm-24,19.58L15.74,33a.67.67,0,0,0,0,.17c0,.07,0,.14,0,.23s0,.24.08.38.06.3.1.47A3.29,3.29,0,0,0,15.83,33.18Zm24-19.58-.06,0h0l0,0,.26-.18Zm-24,19.58L15.74,33a.67.67,0,0,0,0,.17c0,.07,0,.14,0,.23s0,.24.08.38.06.3.1.47A3.29,3.29,0,0,0,15.83,33.18Zm24-19.58-.06,0h0l0,0,.26-.18ZM15.74,33a.67.67,0,0,0,0,.17c0,.07,0,.14,0,.23s0,.24.08.38.06.3.1.47a3.29,3.29,0,0,0-.16-1ZM51.68,76.51C50.71,74.85,44,68,42.3,65.66a5.69,5.69,0,0,1-.38-1.12l-.07-1.4c7.83-2.37,10.71-9.4,9.74-22.52-.45-6.15-1.82-5.93-1.86-11.86a14.17,14.17,0,0,0-1-5.12s-.16-.42-.16-.42c-.46-1-1.82-3.92-1.94-4.2-.84-2-1.33-4-2.08-5.72C47.9,4.42,34.58-.28,27.29,0a38,38,0,0,0-12.8,3,15.93,15.93,0,0,1,6.56.65C9.14,2.64,2.81,11,2.58,16.45A19.12,19.12,0,0,1,13.51,9.64c-1.34.43-5.24,3.6-7.3,7.45A21.44,21.44,0,0,1,9.82,11.5C7.93,12.34,4,14.81,3.1,19,2.44,22.22,3,26.7,6.84,32.16,5.16,33.3,4.43,36.09,5.69,39s1.94,3.46,3.71,6.19a5,5,0,0,0,3.92,2.69,42.73,42.73,0,0,1,.41,6.75,2.32,2.32,0,0,0-1.42,1.13c-1.29,1.8-3.53,6-3.86,9-.4.43-8,5.94-8.3,6.3s-.18.42.11.37c1.26-.22,6.85-3.53,8.2-4.25.23,1.3,1.78,3.57,3.81,6.27,1.56,2.09,3.41,4.43,5.16,6.79C18,81,18.54,82,19.13,83l.23.06c.79.19,1.58.36,2.38.51a24.52,24.52,0,0,0-2-3.34c-2.94-3.81-5.2-6.45-6.82-8.49-4.25-5.33-4.08-6.5-.09-13.5A47.58,47.58,0,0,0,18,65.64,90,90,0,0,0,30.29,78.28c3.08,2.54,5.23,4.53,7.49,5.56l.78-.13,1.16-.23C33.41,81.08,24.62,71.69,19,64.41c-1.6-2.06-2.94-3.95-3.9-5.46a36.9,36.9,0,0,0,0-11.32,1.55,1.55,0,0,0,.68-.47,22,22,0,0,0,3.64,10.57,22.86,22.86,0,0,0,3.24,3.85c5.47,5.26,13,7.58,18,6.92a21.82,21.82,0,0,1-.3,3.14,4.66,4.66,0,0,1-3.42,2,4.81,4.81,0,0,0,2.44-.16c0,.22-.05.42-.08.62-.23,1.74-.46,2.79.69,6.46-.52-4.79-.21-4.06.29-6.91,2.26,3.45,1.21,5.33,3,9l.84-.26.12,0c-1.08-3-.91-5.66-2.41-8.8-.19-.4-.41-.82-.66-1.24a6.07,6.07,0,0,0,.38-4l0-.44.13-.79a53.6,53.6,0,0,0,5.06,4.93,20.65,20.65,0,0,1,2.71,3c1,1.38,1.75,2.83,2.76,4.09.22-.11.43-.23.64-.35a.05.05,0,0,0,0,0l.13-.07A19.61,19.61,0,0,1,51.68,76.51ZM37.42,63c-13.53.52-18.55-6.36-21.53-18.29a.16.16,0,0,0-.22-.11.21.21,0,0,0-.13.2c.18,2.16-3.06,3-5.84-1.46a36.8,36.8,0,0,1-2.64-4.79c-1.66-3.44.62-8.93,5.74-3.41a7.48,7.48,0,0,1,.68,1,0,0,0,0,1,0,0h0a10.11,10.11,0,0,1,.48.93,3.13,3.13,0,0,0,2-2.9h0a3.29,3.29,0,0,0-.16-1L15.74,33s0,0,0,0v-.08c-1.17-3.55-2.12-7.22-.5-10.64l-.09.07h0a23.45,23.45,0,0,0-3.28,3.61,12.39,12.39,0,0,1,5.8-6.61l.12-.07a16.21,16.21,0,0,1,1.82-.89C23.32,16.75,30,17.16,35,15.59h0c2-.66,3-1.92,3.16-3.23a3.82,3.82,0,0,0-2.34-4A3.87,3.87,0,0,1,39,12.15a4.81,4.81,0,0,1-.3,1.7,4.81,4.81,0,0,0,1.21-1.93,3.39,3.39,0,0,0-.29-2.35,3.48,3.48,0,0,1,.76,2.23,4.12,4.12,0,0,1-.57,1.83h0l0,0,.26-.18.16-.11,0,0c1.05-.73,1.82-1.28,2.5-1.23a7.05,7.05,0,0,1,.64,1c1,1.71,1.29,3.71,2.86,7.22A30.13,30.13,0,0,1,47.68,24a12.25,12.25,0,0,1,.76,3.12c-.33,2.61.07,3.85,1.61,13.08.88,6.49.37,11.15-1,14.44v0a10.87,10.87,0,0,1-5.73,6.12,4.28,4.28,0,0,0-.12-1.36,20.21,20.21,0,0,0-.77-2.2,9.77,9.77,0,0,1-.26,2.93C41.64,62.08,40.21,62.93,37.42,63ZM15.83,33.18,15.74,33a.67.67,0,0,0,0,.17c0,.07,0,.14,0,.23s0,.24.08.38.06.3.1.47A3.29,3.29,0,0,0,15.83,33.18Zm24-19.58-.06,0h0l0,0,.26-.18Zm-24,19.58L15.74,33a.67.67,0,0,0,0,.17c0,.07,0,.14,0,.23s0,.24.08.38.06.3.1.47A3.29,3.29,0,0,0,15.83,33.18Zm24-19.58-.06,0h0l0,0,.26-.18Zm-24,19.58L15.74,33a.67.67,0,0,0,0,.17c0,.07,0,.14,0,.23s0,.24.08.38.06.3.1.47A3.29,3.29,0,0,0,15.83,33.18Zm24-19.58-.06,0h0l0,0,.26-.18ZM22.3,60.68a9.08,9.08,0,0,0-1-1.87,1.83,1.83,0,0,1-.13-.16l-.13-.15a.86.86,0,0,0-.13-.14l-.12-.12-.17-.15a2.1,2.1,0,0,0-.33-.22,1.66,1.66,0,0,0-.32-.13,1.1,1.1,0,0,0-.54,0,22.86,22.86,0,0,0,3.24,3.85C22.55,61.29,22.42,61,22.3,60.68ZM34.63,84.23l.33,0A.27.27,0,0,0,34.63,84.23Z"/></g></g></g></svg>