<svg xmlns="http://www.w3.org/2000/svg" viewBox="0 0 141.54 98.92"><defs><style>.cls-1{isolation:isolate;}.cls-2{font-size:32px;font-family:PTSans-NarrowBold, PT Sans Narrow;font-weight:700;}.cls-12,.cls-2{fill:#2e343b;}.cls-3{letter-spacing:-0.03em;}.cls-4{letter-spacing:-0.03em;}.cls-5{fill:#ff5959;}.cls-6{fill:#ffc0a3;}.cls-10,.cls-11,.cls-7{fill:#fff;}.cls-8{fill:#f2cebd;}.cls-8,.cls-9{mix-blend-mode:multiply;}.cls-9{fill:#911111;opacity:0.3;}.cls-10,.cls-11{mix-blend-mode:screen;}.cls-10{opacity:0.5;}.cls-11{opacity:0.75;}</style></defs><g class="cls-1"><g id="Layer_2" data-name="Layer 2"><g id="Layer_1-2" data-name="Layer 1"><text class="cls-2" transform="translate(74.58 34.77) rotate(-7.46)"><tspan class="cls-3">C</tspan><tspan x="13.7" y="0">ool</tspan><tspan x="0" y="24">Stor</tspan><tspan class="cls-4" x="46.98" y="24">y</tspan><tspan class="cls-5"><tspan x="0" y="48">Bro!</tspan></tspan></text><path class="cls-6" d="M61.53,92.18l-.74.41a53.8,53.8,0,0,1-9.25,3.88l-.14,0-1,.31c-1.36.39-2.75.73-4.16,1l-1.35.27-.91.15c-1.08.17-2.18.31-3.28.42l-.39,0c-1.6.15-3.23.22-4.89.22a53.51,53.51,0,0,1-10.12-1c-.93-.18-1.85-.37-2.77-.6-.65-1.2-1.35-2.37-2.09-3.54-1.17-1.58-2.38-3.16-3.56-4.69C16.05,88,15.22,87,14.46,86c-2.36-3.15-4.14-5.74-4.4-7.23l-.06-.3-.25.14-1.61.9c-2.05,1.18-6.67,3.8-7.82,4l-.07,0a.81.81,0,0,1,.09-.1c.18-.24,2.9-2.24,5.07-3.85,2.71-2,4.37-3.23,4.59-3.47l.05-.06V76c.36-3.34,2.82-8,4.44-10.31l.1-.16a2.37,2.37,0,0,1,1.45-1.09l.15,0v-.16a47.16,47.16,0,0,0-.48-7.88l0-.16-.15,0a5.6,5.6,0,0,1-4.43-3c-.56-.87-1-1.55-1.44-2.16a26.35,26.35,0,0,1-2.86-5c-1.5-3.41-.46-6.5,1.26-7.66l.19-.13-.13-.17c-4.75-6.79-5-12-4.32-15.19.91-4.42,4.89-7.06,6.77-8.09a25.1,25.1,0,0,0-3.54,5.77l.38.19c2.31-4.34,6.8-8.07,8.37-8.59l-.11-.39C10.28,13,6.22,15.46,3.27,19.08A15.45,15.45,0,0,1,8.58,9.84c2.89-2.56,8-5.47,15.92-4.82l1.82.15L24.59,4.6a16.84,16.84,0,0,0-6.51-.81A43.52,43.52,0,0,1,31.8.83c6.32-.26,15.37,2.52,19,7.47a7.83,7.83,0,0,1,1,7.72l0,.07,0,.08c.43,1,.79,2.06,1.17,3.21s.76,2.3,1.24,3.45c.06.11.25.55.52,1.13.55,1.18,1.38,3,1.73,3.76l.05.11a1.07,1.07,0,0,1,.06.17l.08.21a16,16,0,0,1,1.11,5.88,23,23,0,0,0,1,7.18,29.29,29.29,0,0,1,1.17,6.65c1.13,15.3-2.33,23.33-11.21,26l-.15,0,.09,1.79a6.17,6.17,0,0,0,.48,1.41c1,1.37,3.36,4,5.66,6.52.74.81,1.48,1.62,2.17,2.39A34.91,34.91,0,0,1,60,89.82c.29.5.58,1,.88,1.44S61.31,91.89,61.53,92.18Z"/><path class="cls-7" d="M31.09,40.46l.81,1.23c1.09.79,7.33.49,7.16-3.21C36.77,35.87,32,38.66,31.09,40.46Z"/><path class="cls-7" d="M46.83,36.86l.49,1.6c.91,1.23,5.76,1.34,6.16-2.9C51.46,33.11,47.67,35.17,46.83,36.86Z"/><path class="cls-7" d="M38.84,58a9.78,9.78,0,0,0,8.36,1.8L51,58.31l.47-.21.51-.37.21-1.9Z"/><path class="cls-5" d="M44.91,98.1l-.91.15c-1.08.17-2.18.31-3.28.42l-.39,0c-1.6.15-3.23.22-4.89.22a53.51,53.51,0,0,1-10.12-1c-.93-.18-1.85-.37-2.77-.6l-.27-.07A53.17,53.17,0,0,1,8.33,91.6,53.82,53.82,0,0,1,.07,85.67c0-.64.13-1.31.23-2a1.64,1.64,0,0,1,0-.22s0-.06,0-.08l10-6.26.18-.43L14.72,67l.14.2,5.57,7.65.16.21c5.89,7.34,11.92,14,18.25,18.79Z"/><path class="cls-5" d="M61.58,92.16l0,0-.74.41a53.8,53.8,0,0,1-9.25,3.88l-.14,0-1.61-3.82L47.4,85.53l.27-2.77L48,80.15l.28-2.66.07-.58,7.25,7.73,0,0,1.34,1.43,4,5.16Z"/><path class="cls-8" d="M18.28,38.72s1.49,10.21,7.8,15.42c3.84,4.43,1.17,10.76,4.56,14C33.61,71,44.34,75.34,50,70a17.43,17.43,0,0,0,8.33-7.58s-2.89,7.32-5.5,8.3a13.11,13.11,0,0,0-4.4,2.89l-1,4.66v5.32l-.73,1.59-.88,1.7S33.9,91,26,71.27c-1.79-4.44-4.09-4.16-4.69-1.69s1.19,7,1.19,7l-6.13-7.69V55.42s1.91.19,1.91-3S15.1,41.08,15.1,41.08l-3.92-11S18.74,18.44,25.51,18s22.86-3.46,23.56-4.52,1.52,2.29,1.52,2.29-5.2,3.92-18.09,5.33C24.25,22,16.91,27.25,18.28,38.72Z"/><path class="cls-8" d="M9.22,44.37c0-.1-1-1.9,0-3a3.36,3.36,0,0,1,2.71-.78l3.22,3.25.42,2.79-1,3.42L13.21,49S13,46.1,11.93,45.54A24.66,24.66,0,0,0,9.22,44.37Z"/><path class="cls-9" d="M21.67,77a5.08,5.08,0,0,0-.68.09c-1.73.3-6.11,1.63-5.92,7.14a10.14,10.14,0,0,0,.12,1.3l-.73.46-.17.1a20.74,20.74,0,0,0-6,5.55A53.82,53.82,0,0,1,.07,85.67c0-.64.13-1.31.23-2a1.64,1.64,0,0,1,0-.22s0-.06,0-.08l10.22-6.69,4.3-9.55.61-1.35.87,1.57,2.88,5.17L20.59,75Z"/><path class="cls-9" d="M48.24,77.5l-.83,8,1.21,1c.83-2.75,3.46-2.93,7-1.88Z"/><path class="cls-7" d="M17.63,26.52A8.19,8.19,0,0,1,21,22.76l-5.61-.66L11,29.85l1.64,2.83,2.25-1.19Z"/><path class="cls-7" d="M39.45,19a23.49,23.49,0,0,0,7-2.59c3.44-2,0-6.16,0-6.16l-6.3-1Z"/><path class="cls-10" d="M43.31,31.52a3.67,3.67,0,0,0-.13,2.41,14.45,14.45,0,0,0,1.66,3.49c.87,1.58,2.64,5.44,2.94,4.81.22-.48-1.33-3-3.49-8a3,3,0,0,1-.08-2.21C44.79,30.57,43.88,30.31,43.31,31.52Z"/><path class="cls-11" d="M48.23,46.5l0,1a.84.84,0,0,0,0,.39.48.48,0,0,0,.55.22,1.32,1.32,0,0,0,.89-1,2.26,2.26,0,0,0-.18-1.47c-.18-.37-.62-.84-1-.53S48.25,46.14,48.23,46.5Z"/><path class="cls-11" d="M53.62,29.36a.65.65,0,0,0,.62,0c.19-.16.12-.47,0-.7L51.48,21a2.49,2.49,0,0,0-.94-1.42l1.26,4.84a4.2,4.2,0,0,1,.2,1.79c-.12.63-.55.92-.91,1.4s.11.73.61.93Z"/><path class="cls-11" d="M43.87,60.67a5.67,5.67,0,0,0,6.34-.57,1.1,1.1,0,0,0,.34-.4.46.46,0,0,0-.07-.5c-.18-.17-.48-.08-.72,0a13.3,13.3,0,0,1-3.56.85,12.57,12.57,0,0,1-1.84,0c-.18,0-.54-.09-.69.07S43.69,60.57,43.87,60.67Z"/><path class="cls-12" d="M40.28,34.92c2.2-6.7-16.45-1.75-14,4.2C29.67,35.42,36.56,32.09,40.28,34.92Z"/><path class="cls-12" d="M31.66,40.85l1-1c1.07,2.93,5,1.61,3.91-1.61a4,4,0,0,1,3.69,1.34c-.27-1.33-2.79-3.07-5.69-2.36a5.9,5.9,0,0,0-3.91,3.42l1.83,1.84Z"/><path class="cls-12" d="M38.11,36.18c-5.39-2.08-8.19,2.94-8.19,2.94A12,12,0,0,1,38.11,36.18Z"/><path class="cls-12" d="M53.48,34C49.13,31.43,46,35.41,46,35.41A10.52,10.52,0,0,1,53.48,34Z"/><path class="cls-12" d="M50.64,34.44c-2,.31-3.92,1.22-4.57,2.17,0,.65,1.37,2.71,2.33,4.84a7.26,7.26,0,0,1,.87,3A10.68,10.68,0,0,0,49,40.78c-.37-1.3-1.27-2.28-1.14-2.94a2.49,2.49,0,0,0,2.5.61c1.28-.49,1.06-2.49.57-3a4.79,4.79,0,0,1,3,.72C54.37,36.48,53.84,34,50.64,34.44Z"/><path class="cls-12" d="M42.76,51.76c.31-.2-.57-1.37-.88-2.13s.6-1.81.6-1.81-1.38.82-1.5,1.68C40.83,50.59,42.27,52.06,42.76,51.76Z"/><path class="cls-12" d="M44.81,51.45c1.08-.58.65-.64,1.81-.46.93.15,1.28-.93.52-1.28-1.7-.8-2.2-1.13-2.92-.29C43.17,50.66,43.77,52,44.81,51.45Z"/><path class="cls-12" d="M48.53,50.06c-.69,1.6,2,.39,2.59-.49a4,4,0,0,0,.43-2.25c0-1.44-1-2-2-2.29a3.35,3.35,0,0,1,.78,1.38A4.49,4.49,0,0,1,50,49C49.6,49.69,48.66,49.75,48.53,50.06Z"/><path class="cls-12" d="M35.77,56.27c-.68-.08-.93,1.46.09,2.61.69.74,1,.58,1.29-.15l1.83.18c2.82,1.44,5.27,2.4,9.74,1.19,2.1-.57,2.3-1.81,2.3-1.81-4.46,1-7.17,1.85-11.43-.15,3.69-.26,6.86-.8,8.62-1a13.62,13.62,0,0,0,3.42-.78l.22,1.3a4.06,4.06,0,0,1-.43.48,2.68,2.68,0,0,0,2.11-1.85.35.35,0,0,1,.59-.08c.26.33.49.72.73.22s-.57-1.11-.54-1.66.3-1.12-.43-1.28c-.28,0-.29,1.21-.91,1.39-.41.12-1.21-.67-1.93-.53s-1.44,1-2.82,1.16a19.69,19.69,0,0,1-2.93,0c-2.12.26-6.79,2-7.36,2C35.67,57.79,36.46,56.36,35.77,56.27Z"/><path class="cls-12" d="M41.2,61.27c5.6,5.53,10.13,2.3,9.42.15C46.58,62.71,44.86,62.8,41.2,61.27Z"/><path class="cls-12" d="M34.55,54.14c-4,3-1.3,7.13.2,7.19C33.39,58.92,33,56.77,34.55,54.14Z"/><path class="cls-12" d="M15.21,44c-.13-1.39-2.58-4.91-5-4-2.61,1.37-1.11,4.86-.95,4.81.3.2-.16-1.93.47-3.15.51-1,1.7-.77,2.67-.21C13.51,42.07,14.75,44.38,15.21,44Z"/><path class="cls-12" d="M15.31,48.34c.29-2.54,1.23-1.73-2-4.87-1.56-1.5-2.38,1.63-1.85,1.68s.42-.61.8-.57c.15,0,.21.19.32.29,2.25,2.11,1.66,4.27.7,4.1a3.37,3.37,0,0,0-.34-.09c-.31,0-.46.28,0,.47,1.61.62,1.12,2.27,2.12,2.47.51.1,1.11-.45.88-1.33C15.66,49.37,15.19,49.45,15.31,48.34Z"/><path class="cls-12" d="M54.9,31.74c.33-3.2-12.09-3.41-10.1,2.19C47.34,30.21,53.24,31.43,54.9,31.74Z"/><path class="cls-12" d="M46.42,16.44l-.06,0h0l0,0,.3-.21Zm-28,22.8c0-.08-.07-.18-.11-.27a.58.58,0,0,0,0,.2c0,.08,0,.17,0,.27s.06.28.1.44.07.35.11.55A4.09,4.09,0,0,0,18.44,39.24Zm7.53,32a10.8,10.8,0,0,0-1.15-2.18.84.84,0,0,1-.15-.18,2,2,0,0,1-.15-.18l-.16-.16-.13-.14a1.4,1.4,0,0,0-.2-.17,2.2,2.2,0,0,0-.39-.26,1.6,1.6,0,0,0-.37-.15,1.23,1.23,0,0,0-.63,0,27.35,27.35,0,0,0,3.77,4.48C26.26,72,26.11,71.63,26,71.27ZM46.42,16.44l-.06,0h0l0,0,.3-.21Zm-28,22.8c0-.08-.07-.18-.11-.27a.58.58,0,0,0,0,.2c0,.08,0,.17,0,.27s.06.28.1.44.07.35.11.55A4.09,4.09,0,0,0,18.44,39.24Zm28-22.8-.06,0h0l0,0,.3-.21Zm-28,22.8c0-.08-.07-.18-.11-.27a.58.58,0,0,0,0,.2c0,.08,0,.17,0,.27s.06.28.1.44.07.35.11.55A4.09,4.09,0,0,0,18.44,39.24Zm28-22.8-.06,0h0l0,0,.3-.21ZM18.33,39a.58.58,0,0,0,0,.2c0,.08,0,.17,0,.27s.06.28.1.44.07.35.11.55a4.09,4.09,0,0,0-.18-1.19C18.4,39.16,18.37,39.06,18.33,39ZM60.19,89.71c-1.13-1.93-9-9.87-10.92-12.64a6.9,6.9,0,0,1-.45-1.3l-.08-1.63c9.12-2.76,12.48-11,11.35-26.23C59.56,40.74,58,41,57.92,34.09a16.4,16.4,0,0,0-1.12-6s-.18-.49-.18-.49c-.54-1.21-2.12-4.56-2.26-4.89-1-2.31-1.55-4.72-2.43-6.66C55.79,5.74,40.28.27,31.78.61a44,44,0,0,0-14.9,3.45,18.5,18.5,0,0,1,7.64.75C10.64,3.67,3.27,13.46,3,19.76c3.32-4.37,7.83-6.67,12.73-7.94-1.56.51-6.1,4.2-8.5,8.68A24.85,24.85,0,0,1,11.44,14c-2.21,1-6.83,3.86-7.83,8.7-.77,3.79-.08,9,4.36,15.36C6,39.38,5.16,42.63,6.63,46S8.89,50,11,53.2a5.77,5.77,0,0,0,4.56,3.13A49.16,49.16,0,0,1,16,64.19a2.7,2.7,0,0,0-1.65,1.32c-1.51,2.09-4.12,6.93-4.5,10.42-.47.5-9.35,6.92-9.67,7.34s-.21.49.13.43c1.47-.26,8-4.11,9.55-5,.27,1.51,2.08,4.16,4.44,7.3,1.82,2.44,4,5.16,6,7.91.62,1,1.29,2.1,2,3.34l.27.07c.92.23,1.84.42,2.77.6A27.86,27.86,0,0,0,23,94.08c-3.42-4.44-6.05-7.51-7.94-9.89-5-6.21-4.75-7.57-.1-15.72a55.13,55.13,0,0,0,6,8.58A104.56,104.56,0,0,0,35.28,91.77c3.59,3,6.09,5.28,8.72,6.48l.91-.15,1.35-.27C38.91,95,28.67,84.1,22.12,75.62c-1.87-2.4-3.43-4.6-4.55-6.36a42.92,42.92,0,0,0,0-13.19,1.9,1.9,0,0,0,.79-.54,25.72,25.72,0,0,0,4.24,12.31,27.35,27.35,0,0,0,3.77,4.48c6.38,6.13,15.11,8.83,21,8.06A26.22,26.22,0,0,1,47,84a5.42,5.42,0,0,1-4,2.3,5.54,5.54,0,0,0,2.85-.18c0,.25-.06.49-.1.72-.27,2-.53,3.25.81,7.52-.61-5.57-.25-4.72.33-8,2.64,4,1.41,6.2,3.51,10.46l1-.31.14,0c-1.26-3.51-1.06-6.6-2.81-10.25-.22-.47-.48-1-.77-1.45a7,7,0,0,0,.44-4.72l0-.51.15-.92a61.45,61.45,0,0,0,5.89,5.74,24,24,0,0,1,3.16,3.46c1.17,1.61,2,3.3,3.22,4.77l.74-.41,0,0a.75.75,0,0,0,.15-.09A22.25,22.25,0,0,1,60.19,89.71ZM43.58,74c-15.76.61-21.6-7.41-25.07-21.3a.18.18,0,0,0-.26-.13.24.24,0,0,0-.15.23c.21,2.52-3.57,3.47-6.8-1.7a42,42,0,0,1-3.08-5.58c-1.93-4,.72-10.4,6.69-4a9.27,9.27,0,0,1,.79,1.15h0v0a9.94,9.94,0,0,1,.56,1.08,3.65,3.65,0,0,0,2.35-3.38h0a4.09,4.09,0,0,0-.18-1.19c0-.08-.07-.18-.11-.27v-.14c-1.36-4.13-2.47-8.4-.58-12.39l-.11.08s0,0,0,0a27.39,27.39,0,0,0-3.82,4.2A14.44,14.44,0,0,1,20.54,23l.14-.08a22,22,0,0,1,2.12-1c4.36-1.81,12.08-1.34,17.91-3.17h0c2.34-.77,3.47-2.23,3.68-3.76a4.44,4.44,0,0,0-2.72-4.61c2.41.66,3.69,2.32,3.7,4.38a5.53,5.53,0,0,1-.35,2,5.62,5.62,0,0,0,1.41-2.25,4,4,0,0,0-.34-2.74,4.05,4.05,0,0,1,.89,2.6,4.9,4.9,0,0,1-.66,2.13h0l0,0,.3-.21.19-.13,0,0c1.22-.85,2.12-1.49,2.91-1.44a9.09,9.09,0,0,1,.74,1.13c1.12,2,1.51,4.33,3.33,8.41a35.26,35.26,0,0,1,1.69,4.31,14.21,14.21,0,0,1,.89,3.64c-.39,3,.08,4.48,1.87,15.23,1,7.56.43,13-1.11,16.82,0,0,0,0,0,0a12.62,12.62,0,0,1-6.67,7.13,5.11,5.11,0,0,0-.14-1.58,21.63,21.63,0,0,0-.9-2.56,11.16,11.16,0,0,1-.3,3.41C48.5,72.9,46.83,73.89,43.58,74ZM18.44,39.24c0-.08-.07-.18-.11-.27a.58.58,0,0,0,0,.2c0,.08,0,.17,0,.27s.06.28.1.44.07.35.11.55A4.09,4.09,0,0,0,18.44,39.24Zm28-22.8-.06,0h0l0,0,.3-.21Zm-28,22.8c0-.08-.07-.18-.11-.27a.58.58,0,0,0,0,.2c0,.08,0,.17,0,.27s.06.28.1.44.07.35.11.55A4.09,4.09,0,0,0,18.44,39.24Zm28-22.8-.06,0h0l0,0,.3-.21Zm-28,22.8c0-.08-.07-.18-.11-.27a.58.58,0,0,0,0,.2c0,.08,0,.17,0,.27s.06.28.1.44.07.35.11.55A4.09,4.09,0,0,0,18.44,39.24Zm28-22.8-.06,0h0l0,0,.3-.21ZM26,71.27a10.8,10.8,0,0,0-1.15-2.18.84.84,0,0,1-.15-.18,2,2,0,0,1-.15-.18l-.16-.16-.13-.14a1.4,1.4,0,0,0-.2-.17,2.2,2.2,0,0,0-.39-.26,1.6,1.6,0,0,0-.37-.15,1.23,1.23,0,0,0-.63,0,27.35,27.35,0,0,0,3.77,4.48C26.26,72,26.11,71.63,26,71.27ZM40.33,98.7l.39,0A.33.33,0,0,0,40.33,98.7Z"/></g></g></g></svg>