<svg xmlns="http://www.w3.org/2000/svg" viewBox="0 0 288.8 181.94"><defs><style>.cls-1{isolation:isolate;}.cls-2{fill:#ffc0a3;}.cls-3,.cls-7,.cls-8{fill:#fff;}.cls-4{fill:#ff5959;}.cls-5{fill:#f2cebd;}.cls-5,.cls-6{mix-blend-mode:multiply;}.cls-6{fill:#911111;opacity:0.3;}.cls-7,.cls-8{mix-blend-mode:screen;}.cls-7{opacity:0.5;}.cls-8{opacity:0.75;}.cls-11,.cls-9{fill:#2e343b;}.cls-10{fill:#b2b2b2;}.cls-11{font-size:20px;font-family:ComicSansMS-Bold, Comic Sans MS;font-weight:700;}</style></defs><g class="cls-1"><g id="Layer_2" data-name="Layer 2"><g id="Layer_1-2" data-name="Layer 1"><path class="cls-2" d="M87.14,172.39c-.35.2-.69.4-1.06.58A74,74,0,0,1,73,178.46l-.2.07L71.4,179q-2.9.84-5.89,1.43c-.62.13-1.27.27-1.91.38l-1.29.21q-2.3.38-4.65.6l-.54,0q-3.42.31-6.93.31a75.93,75.93,0,0,1-14.33-1.35q-2-.37-3.93-.84c-.92-1.7-1.91-3.37-2.95-5-1.67-2.24-3.38-4.48-5.05-6.64-1.2-1.57-2.37-3.09-3.45-4.52-3.34-4.46-5.87-8.14-6.23-10.25l-.08-.41-.37.2-2.27,1.27c-2.91,1.67-9.45,5.38-11.07,5.69a.19.19,0,0,1-.1,0A.79.79,0,0,1,.48,160c.26-.33,4.1-3.16,7.19-5.44,3.82-2.84,6.18-4.58,6.5-4.91l.06-.09,0-.1c.51-4.73,4-11.39,6.28-14.61l.15-.21A3.34,3.34,0,0,1,22.73,133l.21,0v-.23a68.09,68.09,0,0,0-.67-11.17l0-.22-.21-.05a7.89,7.89,0,0,1-6.27-4.3c-.79-1.24-1.45-2.19-2.05-3a37.8,37.8,0,0,1-4-7.13C7.54,102,9,97.64,11.45,96l.26-.18-.18-.25c-6.73-9.62-7-17-6.12-21.51,1.28-6.25,6.93-10,9.58-11.45a35.21,35.21,0,0,0-5,8.17l.54.26c3.27-6.13,9.63-11.43,11.86-12.15l-.16-.56c-7.66,2-13.41,5.42-17.59,10.55C5.16,64.4,8,59.49,12.15,55.79S23.49,48,34.7,49l2.58.22-2.46-.81a24.12,24.12,0,0,0-9.22-1.16A62.08,62.08,0,0,1,45,43C54,42.66,66.8,46.59,71.88,53.6a11.1,11.1,0,0,1,1.39,10.93l0,.1,0,.12c.61,1.38,1.12,2.92,1.67,4.55S76,72.55,76.7,74.18c.08.15.36.78.74,1.6.77,1.67,2,4.19,2.44,5.33l.08.15c0,.07.05.15.09.25l.11.29a22.78,22.78,0,0,1,1.57,8.33,32.47,32.47,0,0,0,1.42,10.16,42,42,0,0,1,1.65,9.42c1.6,21.68-3.3,33-15.87,36.85l-.22.07.14,2.54a7.78,7.78,0,0,0,.67,2c1.37,2,4.75,5.66,8,9.24,1,1.14,2.09,2.29,3.07,3.38A52.21,52.21,0,0,1,85,169c.41.71.82,1.41,1.25,2.05C86.53,171.55,86.82,172,87.14,172.39Z"/><path class="cls-3" d="M66.32,94.05l.7,2.26c1.29,1.75,8.15,1.91,8.72-4.1C72.88,88.74,67.51,91.66,66.32,94.05Z"/><path class="cls-3" d="M55,124s4.35,4,11.84,2.55l5.35-2.1.68-.3.71-.52.3-2.7Z"/><path class="cls-4" d="M63.6,180.77l-1.29.21q-2.3.38-4.65.6l-.54,0q-3.42.31-6.93.31a75.93,75.93,0,0,1-14.33-1.35q-2-.37-3.93-.84a3.49,3.49,0,0,0-.38-.1,75.45,75.45,0,0,1-19.76-8.08A76.93,76.93,0,0,1,.1,163.17c.06-.91.18-1.85.33-2.79a1.63,1.63,0,0,1,0-.31s0-.08,0-.12l14.21-8.85.27-.61,5.89-13.81.2.28,7.88,10.84.23.3C37.51,158.49,46,167.89,55,174.7Z"/><path class="cls-4" d="M87.2,172.36a.09.09,0,0,1-.06,0c-.35.2-.69.4-1.06.58A74,74,0,0,1,73,178.46l-.2.07-2.28-5.41L67.13,163l.38-3.92.41-3.7.4-3.76.1-.82,10.26,10.95,0,0,1.9,2,5.62,7.31Z"/><path class="cls-5" d="M25.89,96.68s2.11,14.46,11,21.84c5.44,6.28,1.65,15.24,6.47,19.88,4.19,4,19.39,10.14,27.39,2.55,0,0,8-3.14,11.79-10.73,0,0-4.1,10.36-7.79,11.76a18.66,18.66,0,0,0-6.24,4.08l-1.36,6.61v7.54l-1,2.24-1.26,2.4S48,170.64,36.78,142.78c-2.54-6.29-5.8-5.9-6.64-2.4s1.68,10,1.68,10l-8.68-10.9V120.34s2.7.26,2.7-4.23S21.39,100,21.39,100L15.84,84.45S26.54,68,36.13,67.37s32.36-4.9,33.36-6.4,2.15,3.24,2.15,3.24S64.29,69.76,46,71.76C34.34,73,24,80.45,25.89,96.68Z"/><path class="cls-5" d="M13.06,104.69c0-.15-1.45-2.7,0-4.2a4.76,4.76,0,0,1,3.83-1.09L21.45,104l.6,4-1.45,4.84-1.89-1.55s-.33-4.09-1.82-4.89A35.37,35.37,0,0,0,13.06,104.69Z"/><path class="cls-6" d="M30.69,150.83a7.33,7.33,0,0,0-1,.14c-2.44.42-8.64,2.3-8.38,10.11a15.54,15.54,0,0,0,.17,1.84c-.35.22-.7.42-1,.65l-.24.15a29.46,29.46,0,0,0-8.45,7.85A76.93,76.93,0,0,1,.1,163.17c.06-.91.18-1.85.33-2.79a1.63,1.63,0,0,1,0-.31s0-.08,0-.12L15,150.49,21.05,137l.85-1.91,1.24,2.22,4.07,7.33,1.95,3.5Z"/><path class="cls-6" d="M68.32,151.6,67.14,163l1.71,1.45c1.18-3.89,4.91-4.16,9.87-2.67Z"/><path class="cls-3" d="M25,79.41a11.55,11.55,0,0,1,4.76-5.32l-7.94-.94-6.22,11,2.32,4,3.19-1.68Z"/><path class="cls-3" d="M55.86,68.81a33.57,33.57,0,0,0,9.89-3.67c4.87-2.81,0-8.73,0-8.73L56.84,55Z"/><path class="cls-7" d="M61.33,86.49a5.27,5.27,0,0,0-.19,3.4c.35,1.1.36,1.33,2.36,5,1.24,2.24,3.74,7.71,4.16,6.82.32-.68-1.88-4.2-4.94-11.29a4.24,4.24,0,0,1-.12-3.13C63.43,85.15,62.14,84.77,61.33,86.49Z"/><path class="cls-8" d="M68.31,107.7c0,.49,0,1,0,1.47a1.09,1.09,0,0,0,.07.54.66.66,0,0,0,.79.31,1.89,1.89,0,0,0,1.26-1.43,3.21,3.21,0,0,0-.27-2.07c-.25-.54-.88-1.2-1.44-.75S68.32,107.19,68.31,107.7Z"/><path class="cls-8" d="M75.94,83.42a.88.88,0,0,0,.87,0c.27-.22.17-.66,0-1l-4-10.81a3.52,3.52,0,0,0-1.33-2q.89,3.44,1.79,6.86A5.78,5.78,0,0,1,73.63,79c-.16.89-.76,1.29-1.27,2s.14,1,.85,1.33Z"/><path class="cls-8" d="M62.12,127.77a8,8,0,0,0,9-.8,1.57,1.57,0,0,0,.49-.57.64.64,0,0,0-.1-.71c-.26-.25-.69-.12-1,0a18.52,18.52,0,0,1-5,1.19,17.24,17.24,0,0,1-2.59.07c-.27,0-.78-.14-1,.09S61.86,127.63,62.12,127.77Z"/><path class="cls-9" d="M57,91.31c3.12-9.5-23.3-2.48-19.79,5.94C42,92,51.77,87.29,57,91.31Z"/><path class="cls-9" d="M51.76,96A5.67,5.67,0,0,1,57,97.91C56.6,96,53,93.56,48.92,94.56A8.29,8.29,0,0,0,43.4,99.4"/><path class="cls-9" d="M54,93.09c-7.62-3-11.59,4.16-11.59,4.16C47.23,92.68,54,93.09,54,93.09Z"/><path class="cls-9" d="M75.74,89.93C69.58,86.36,65.16,92,65.16,92A14.87,14.87,0,0,1,75.74,89.93Z"/><path class="cls-9" d="M71.71,90.62c-2.88.44-5.54,1.72-6.46,3.08-.07.91,1.94,3.83,3.29,6.85a10.3,10.3,0,0,1,1.24,4.2,15.18,15.18,0,0,0-.46-5.15c-.52-1.85-1.8-3.23-1.61-4.16a3.54,3.54,0,0,0,3.53.87c1.81-.7,1.51-3.53.81-4.29a6.81,6.81,0,0,1,4.31,1C77,93.51,76.25,89.93,71.71,90.62Z"/><path class="cls-9" d="M60.56,115.14c.44-.27-.82-1.93-1.25-3s.84-2.55.84-2.55S58.2,110.73,58,112C57.83,113.49,59.87,115.57,60.56,115.14Z"/><path class="cls-9" d="M63.46,114.71c1.52-.82.92-.9,2.57-.64,1.31.2,1.8-1.32.73-1.83-2.41-1.13-3.12-1.6-4.14-.4C61.14,113.59,62,115.5,63.46,114.71Z"/><path class="cls-9" d="M68.73,112.75c-1,2.26,2.86.54,3.66-.7a5.45,5.45,0,0,0,.61-3.18c0-2-1.47-2.79-2.84-3.25a4.88,4.88,0,0,1,1.12,2,6.22,6.22,0,0,1-.48,3.61C70.24,112.21,68.92,112.31,68.73,112.75Z"/><path class="cls-9" d="M50.65,121.54c-1-.12-1.31,2.06.13,3.7,1,1,1.49.81,1.82-.22l2.6.26c4,2,7.47,3.39,13.8,1.68,3-.8,3.25-2.56,3.25-2.56-6.31,1.45-10.16,2.62-16.18-.21,5.22-.38,9.71-1.14,12.2-1.41a18.23,18.23,0,0,0,4.84-1.11l.32,1.85a4.43,4.43,0,0,1-.61.67,3.77,3.77,0,0,0,3-2.61.5.5,0,0,1,.84-.11c.36.47.68,1,1,.3s-.81-1.57-.76-2.34.43-1.59-.6-1.82c-.4,0-.42,1.71-1.29,2-.59.17-1.71-1-2.74-.74s-2,1.35-4,1.64-3.14-.19-4.15-.06c-3,.37-9.61,2.76-10.42,2.86C50.51,123.69,51.63,121.67,50.65,121.54Z"/><path class="cls-9" d="M58.35,128.62c7.92,7.82,14.34,3.25,13.34.22C66,130.65,63.53,130.79,58.35,128.62Z"/><path class="cls-9" d="M48.93,118.52c-5.64,4.21-1.85,10.1.28,10.18C47.29,125.29,46.74,122.25,48.93,118.52Z"/><path class="cls-9" d="M21.54,104.13c-.18-2-3.65-7-7.14-5.67-3.7,1.94-1.57,6.87-1.35,6.81.43.28-.22-2.73.67-4.47.72-1.4,2.42-1.08,3.79-.3C19.14,101.43,20.88,104.7,21.54,104.13Z"/><path class="cls-9" d="M21.68,110.31c.42-3.6,1.75-2.46-2.85-6.9-2.2-2.13-3.36,2.31-2.61,2.38.53.06.59-.86,1.13-.81.21,0,.3.27.46.42,3.17,3,2.34,6,1,5.8-.17,0-.32-.11-.49-.13-.44,0-.65.4.05.67,2.28.87,1.57,3.21,3,3.49.73.15,1.58-.63,1.25-1.88C22.17,111.76,21.5,111.88,21.68,110.31Z"/><path class="cls-9" d="M77.75,86.8c.46-4.53-17.13-4.84-14.3,3.09C67.05,84.64,75.39,86.37,77.75,86.8Z"/><path class="cls-9" d="M65.74,65.13l-.09.05h0s0,0,0,0L66,65ZM26.11,97.42c-.05-.11-.1-.26-.15-.38a1.35,1.35,0,0,0,.05.29,3.35,3.35,0,0,0,.07.37c0,.19.08.4.13.63s.1.5.16.78A5.51,5.51,0,0,0,26.11,97.42Zm10.67,45.36a15.37,15.37,0,0,0-1.63-3.08c-.08-.08-.15-.18-.22-.26s-.15-.19-.21-.25a1.2,1.2,0,0,0-.22-.23l-.19-.2c-.1-.1-.2-.18-.28-.25a4,4,0,0,0-.55-.36,2.6,2.6,0,0,0-.53-.22,1.79,1.79,0,0,0-.89,0,37.47,37.47,0,0,0,5.35,6.35C37.19,143.79,37,143.3,36.78,142.78Zm29-77.65-.09.05h0s0,0,0,0L66,65ZM26.11,97.42c-.05-.11-.1-.26-.15-.38a1.35,1.35,0,0,0,.05.29,3.35,3.35,0,0,0,.07.37c0,.19.08.4.13.63s.1.5.16.78A5.51,5.51,0,0,0,26.11,97.42ZM65.74,65.13l-.09.05h0s0,0,0,0L66,65ZM26.11,97.42c-.05-.11-.1-.26-.15-.38a1.35,1.35,0,0,0,.05.29,3.35,3.35,0,0,0,.07.37c0,.19.08.4.13.63s.1.5.16.78A5.51,5.51,0,0,0,26.11,97.42ZM65.74,65.13l-.09.05h0s0,0,0,0L66,65ZM26,97a1.35,1.35,0,0,0,.05.29,3.35,3.35,0,0,0,.07.37c0,.19.08.4.13.63s.1.5.16.78a5.51,5.51,0,0,0-.26-1.69C26.06,97.31,26,97.16,26,97Zm59.28,71.85c-1.6-2.73-12.72-14-15.47-17.89a9.62,9.62,0,0,1-.63-1.85L69,146.84c12.91-3.91,17.66-15.5,16.06-37.14-.74-10.15-3-9.79-3.07-19.57a23.26,23.26,0,0,0-1.58-8.44s-.26-.69-.26-.69c-.76-1.72-3-6.47-3.2-6.93-1.39-3.27-2.2-6.68-3.43-9.44C79,50,57,42.23,45,42.71A62.73,62.73,0,0,0,23.9,47.59c3-.08,5.87-.52,10.82,1.08C15.07,47.05,4.63,60.91,4.25,69.83c4.7-6.19,11.09-9.44,18-11.23-2.21.71-8.64,5.93-12,12.28a35.39,35.39,0,0,1,6-9.22C13.08,63.05,6.53,67.12,5.11,74,4,79.35,5,86.74,11.28,95.74c-2.77,1.88-4,6.48-1.9,11.23s3.2,5.71,6.12,10.21A8.18,8.18,0,0,0,22,121.62a69.84,69.84,0,0,1,.67,11.14,3.81,3.81,0,0,0-2.34,1.86c-2.12,3-5.82,9.81-6.36,14.76-.66.71-13.25,9.8-13.69,10.39s-.3.7.18.61c2.08-.36,11.3-5.82,13.52-7,.38,2.15,2.94,5.89,6.29,10.35,2.57,3.44,5.62,7.3,8.51,11.2.87,1.38,1.83,3,2.8,4.73a3.49,3.49,0,0,1,.38.1q1.95.47,3.93.84a40.61,40.61,0,0,0-3.27-5.51c-4.85-6.28-8.58-10.64-11.25-14-7-8.8-6.73-10.73-.15-22.27.89,2,4,6.6,8.53,12.16A148.21,148.21,0,0,0,50,171.81C55,176,58.59,179.29,62.31,181l1.29-.21c.64-.11,1.29-.25,1.91-.38-10.4-4-24.9-19.45-34.19-31.45-2.64-3.4-4.85-6.52-6.43-9,1.48-7.36.43-16.07.05-18.67a2.53,2.53,0,0,0,1.12-.78,36.22,36.22,0,0,0,6,17.44,37.47,37.47,0,0,0,5.35,6.35c9,8.67,21.39,12.5,29.65,11.41a35.63,35.63,0,0,1-.49,5.18,7.7,7.7,0,0,1-5.64,3.27,7.88,7.88,0,0,0,4-.27c0,.37-.08.7-.13,1-.38,2.87-.76,4.6,1.14,10.65-.86-7.9-.35-6.7.48-11.4,3.73,5.69,2,8.8,5,14.82l1.39-.43.2-.07c-1.79-5-1.5-9.33-4-14.51-.31-.66-.68-1.36-1.09-2a10,10,0,0,0,.63-6.68c0-.25,0-.48,0-.73l.21-1.3a87.89,87.89,0,0,0,8.35,8.13,34.26,34.26,0,0,1,4.47,4.9c1.65,2.28,2.89,4.67,4.55,6.75.37-.18.71-.38,1.06-.58a.09.09,0,0,0,.06,0,.78.78,0,0,0,.22-.12A31.55,31.55,0,0,1,85.24,168.89ZM61.72,146.66c-22.32.86-30.6-10.49-35.51-30.17a.26.26,0,0,0-.37-.18.36.36,0,0,0-.21.33c.3,3.56-5.05,4.92-9.63-2.41a60.7,60.7,0,0,1-4.36-7.9c-2.73-5.67,1-14.73,9.47-5.62a11.12,11.12,0,0,1,1.12,1.63,0,0,0,0,1,0,0h0a17,17,0,0,1,.79,1.54,5.17,5.17,0,0,0,3.33-4.79h0a5.51,5.51,0,0,0-.26-1.69c-.05-.11-.1-.26-.15-.38s0,0,0-.06v-.07s0,0,0,0v0C24,91,22.43,84.94,25.1,79.3l-.15.11s0,0,0,0a37.89,37.89,0,0,0-5.41,5.95,20.39,20.39,0,0,1,9.56-10.9,1.32,1.32,0,0,0,.2-.12,27.87,27.87,0,0,1,3-1.46c6.17-2.58,17.11-1.9,25.36-4.49l.06,0c3.32-1.08,4.92-3.16,5.21-5.32a6.3,6.3,0,0,0-3.86-6.54c3.42.94,5.23,3.29,5.25,6.21a8,8,0,0,1-.49,2.8,8,8,0,0,0,2-3.18,5.59,5.59,0,0,0-.48-3.88,5.76,5.76,0,0,1,1.26,3.68,6.87,6.87,0,0,1-.94,3h0s0,0,0,0L66,65a1.16,1.16,0,0,1,.27-.18s0,0,0,0c1.73-1.2,3-2.11,4.12-2a11.55,11.55,0,0,1,1,1.6c1.59,2.82,2.13,6.12,4.72,11.91a48.86,48.86,0,0,1,2.39,6.11,20.26,20.26,0,0,1,1.26,5.14c-.55,4.31.11,6.35,2.65,21.58,1.45,10.7.61,18.39-1.58,23.81,0,0,0,0,0,0A17.9,17.9,0,0,1,71.5,143a7,7,0,0,0-.2-2.24A31.59,31.59,0,0,0,70,137.11a15.7,15.7,0,0,1-.43,4.83C68.68,145.09,66.32,146.5,61.72,146.66ZM26.11,97.42c-.05-.11-.1-.26-.15-.38a1.35,1.35,0,0,0,.05.29,3.35,3.35,0,0,0,.07.37c0,.19.08.4.13.63s.1.5.16.78A5.51,5.51,0,0,0,26.11,97.42ZM65.74,65.13l-.09.05h0s0,0,0,0L66,65ZM26.11,97.42c-.05-.11-.1-.26-.15-.38a1.35,1.35,0,0,0,.05.29,3.35,3.35,0,0,0,.07.37c0,.19.08.4.13.63s.1.5.16.78A5.51,5.51,0,0,0,26.11,97.42ZM65.74,65.13l-.09.05h0s0,0,0,0L66,65ZM26.11,97.42c-.05-.11-.1-.26-.15-.38a1.35,1.35,0,0,0,.05.29,3.35,3.35,0,0,0,.07.37c0,.19.08.4.13.63s.1.5.16.78A5.51,5.51,0,0,0,26.11,97.42ZM65.74,65.13l-.09.05h0s0,0,0,0L66,65Zm-29,77.65a15.37,15.37,0,0,0-1.63-3.08c-.08-.08-.15-.18-.22-.26s-.15-.19-.21-.25a1.2,1.2,0,0,0-.22-.23l-.19-.2c-.1-.1-.2-.18-.28-.25a4,4,0,0,0-.55-.36,2.6,2.6,0,0,0-.53-.22,1.79,1.79,0,0,0-.89,0,37.47,37.47,0,0,0,5.35,6.35C37.19,143.79,37,143.3,36.78,142.78Zm20.34,38.85.54,0A.44.44,0,0,0,57.12,181.63Z"/><path class="cls-9" d="M120.6,126.31a3.45,3.45,0,0,1-2.41-3.68,4,4,0,0,1,3.15-3.43c18.27-3.86,26.46-11.3,30.12-17.09-9.93-9.86-17.29-22-20.77-34.29-4-14.09-2.54-27.2,4.18-37.91,19.44-31,84.73-35.34,119.37-24.65.64.2,1.28.4,1.9.61,15.24,5.12,25.7,15,30.25,28.44,5.16,15.33,2,33.93-8.78,51-9.25,14.72-24.31,26.47-42.43,33.08s-37.16,7.36-53.86,2.21l-1.66-.53-.42-.15c-27.28,15.75-57.28,6.77-58.55,6.38Z"/><path class="cls-3" d="M255.7,8.57c-33.13-11.13-98.29-7-116.76,22.49-13.49,21.51-2.05,51,18,69.73-3.69,7.61-12.65,17-34.19,21.6,0,0,30.21,9.68,57.11-7,.68.25,1.35.5,2,.73,33.14,11.12,75-3.75,93.45-33.21S288.84,19.69,255.7,8.57Z"/><path class="cls-10" d="M208.56,104.1a110.49,110.49,0,0,1-33.45-7.29c-4.5,16.28-19.42,20.76-29.26,23.32a51.6,51.6,0,0,1-7.72,1.5c27,.17,38.18-10,41.36-13.7a72.48,72.48,0,0,0,25.95,5c20.4.25,38.52-9.32,46.6-19.09A72.18,72.18,0,0,1,208.56,104.1Z"/><text class="cls-11" transform="translate(172.65 42.69) rotate(-4.14)">We are<tspan x="0" y="24">working</tspan><tspan x="0" y="48">on it</tspan></text></g></g></g></svg>